<?xml version="1.0" encoding="UTF-8" standalone="no"?>
<svg width="44px" height="32px" viewBox="0 0 44 32" version="1.1" xmlns="http://www.w3.org/2000/svg" xmlns:xlink="http://www.w3.org/1999/xlink" xmlns:sketch="http://www.bohemiancoding.com/sketch/ns">
    <!-- Generator: sketchtool 3.4 (356) - http://www.bohemiancoding.com/sketch -->
    <title>camera_write-post</title>
    <desc>Created with sketchtool.</desc>
    <defs></defs>
    <g id="Profile" stroke="none" stroke-width="1" fill="none" fill-rule="evenodd" sketch:type="MSPage">
        <g id="settings-info" sketch:type="MSArtboardGroup" transform="translate(-277.000000, -317.000000)">
            <g id="profile-top" sketch:type="MSLayerGroup" transform="translate(-3.000000, 0.000000)">
                <g id="camera2" transform="translate(260.000000, 291.000000)" sketch:type="MSShapeGroup">
                    <g id="camera_write-post" transform="translate(20.000000, 26.000000)">
                        <path d="M8,5 C8,4.44386482 7.55237094,4 7.00019251,4 L3.99980749,4 C3.44371665,4 3,4.44771525 3,5 L1.00167227,5 C0.449815579,5 0,5.44456577 0,5.99296544 L0,31.0070346 C0,31.5538914 0.44846395,32 1.00167227,32 L42.9983277,32 C43.5501844,32 44,31.5554342 44,31.0070346 L44,5.99296544 C44,5.44610862 43.551536,5 42.9983277,5 L8,5 Z M22,28 C26.9705627,28 31,23.9705627 31,19 C31,14.0294373 26.9705627,10 22,10 C17.0294373,10 13,14.0294373 13,19 C13,23.9705627 17.0294373,28 22,28 Z M5.5,13 C6.88071187,13 8,11.8807119 8,10.5 C8,9.11928813 6.88071187,8 5.5,8 C4.11928813,8 3,9.11928813 3,10.5 C3,11.8807119 4.11928813,13 5.5,13 Z" id="Rectangle-821" stroke="#FFFFFF" fill="#FFFFFF"></path>
                        <circle id="Oval-853" fill="#FFFFFF" cx="22" cy="19" r="7"></circle>
                        <rect id="Rectangle-822" stroke="#FFFFFF" stroke-width="3" x="9" y="0" width="26" height="7" rx="1"></rect>
                    </g>
                </g>
            </g>
        </g>
    </g>
</svg>