<?xml version="1.0" encoding="UTF-8" standalone="no"?>
<svg width="23px" height="21px" viewBox="0 0 23 21" version="1.1" xmlns="http://www.w3.org/2000/svg" xmlns:xlink="http://www.w3.org/1999/xlink" xmlns:sketch="http://www.bohemiancoding.com/sketch/ns">
    <!-- Generator: sketchtool 3.4 (356) - http://www.bohemiancoding.com/sketch -->
    <title>profile_icon_Articlesread</title>
    <desc>Created with sketchtool.</desc>
    <defs></defs>
    <g id="Highlights" stroke="none" stroke-width="1" fill="none" fill-rule="evenodd" sketch:type="MSPage">
        <g id="highlights-detail" sketch:type="MSArtboardGroup" transform="translate(-863.000000, -23.000000)" fill="#FFFFFF">
            <g id="header" sketch:type="MSLayerGroup">
                <path d="M884.111269,39.2121501 L884.11283,39.2116673 C884.118938,39.2154424 884.126118,39.217618 884.1338,39.217618 C884.150052,39.217618 884.164054,39.2078821 884.170416,39.1938633 L884.267165,39.1639514 L877.110998,35.5022218 L877.23437,33.7392337 C877.172661,33.8194913 877.115123,33.9000658 877.062639,33.9809187 L877.062639,33.9809187 L877.062639,33.8911411 L877.062639,33.8911411 C877.135918,33.7826139 877.404735,33.6371134 877.457393,33.5502835 C877.924721,32.7796832 878.429584,32.0173098 878.790749,31.2116506 C878.959413,30.8354099 878.997484,30.4211752 879.085823,30.0290234 C879.666185,27.4526903 879.33503,25.1370799 876.32285,23.9111938 C875.681994,23.6503805 875.350716,23.589667 875.088984,23.546275 C874.842471,23.505406 874.660255,23.4754895 874.25715,23.4472995 L874.269433,23.5041556 L874.245547,23.5041556 L874.25715,23.4472995 C873.876342,23.4754895 873.704205,23.505406 873.471327,23.546275 C873.224072,23.589667 872.911118,23.6503805 872.305708,23.9111938 C869.460138,25.1370799 869.1473,27.4526903 869.695561,30.0290234 C869.779013,30.4211752 869.814979,30.8354099 869.974313,31.2116506 C870.315502,32.0173098 870.79244,32.7796832 871.233919,33.5502835 C871.290747,33.6494752 871.614059,33.825232 871.624051,33.934969 C871.625565,33.9516018 871.633937,33.9653547 871.648403,33.9764137 L871.635432,34.0284861 C871.578411,33.9316593 871.514327,33.8352199 871.444606,33.7392337 L871.562575,35.5237214 L864.971164,39.0900124 C864.937543,39.0913697 864.908379,39.1092795 864.892278,39.1354763 L864.809065,39.1794653 L864.879999,39.1960261 C864.883842,39.2210749 864.898141,39.242856 864.9185,39.2571489 C864.665302,39.2964737 864.493711,39.3725358 864.493711,39.4599182 C864.493711,39.4928058 864.518017,39.5240898 864.561831,39.5524154 L864.397397,39.5524154 L864.397397,39.8143723 L864.397397,39.8143723 C864.382123,39.8222759 864.367169,39.8307334 864.352561,39.839719 L863.991546,40.315517 L863.990591,40.315517 L863.990591,43.7379125 L864.012143,43.7379125 L864.012143,43.755733 L863.967184,43.755733 L863.967184,43.837173 L885.12874,43.837173 L885.12874,43.8072854 L885.152983,43.8072854 L885.152983,40.2923927 L885.124819,40.2923927 C885.124867,40.3024279 885.12381,40.315517 885.12381,40.315517 L885.105237,40.2923927 L885.087054,40.2923927 C885.084585,40.2813659 885.08187,40.2704392 885.078913,40.2596189 L884.721726,39.814904 L884.721726,39.814904 C884.697062,39.8021101 884.671555,39.790761 884.645311,39.7809623 C884.66241,39.7445676 884.671415,39.7067862 884.671415,39.6680368 C884.671415,39.4745621 884.446923,39.3052159 884.111269,39.2121501 L884.111269,39.2121501 L884.111269,39.2121501 Z M865.053419,39.2365139 L865.065627,39.2393639 C865.060391,39.2398308 865.055178,39.2403122 865.049988,39.2408079 C865.051174,39.2394099 865.052319,39.237978 865.053419,39.2365139 L865.053419,39.2365139 L865.053419,39.2365139 Z M864.040955,40.2503984 C864.036943,40.2642268 864.033329,40.2782295 864.030126,40.2923927 L864.030126,40.2923927 L864.012143,40.2923927 L864.012143,40.315517 L863.991546,40.315517 C863.991546,40.315517 863.991546,40.315517 863.991546,40.315517 L864.040955,40.2503984 L864.040955,40.2503984 L864.040955,40.2503984 Z" id="profile_icon_Articlesread" sketch:type="MSShapeGroup"></path>
            </g>
        </g>
    </g>
</svg>