<?xml version="1.0" encoding="UTF-8" standalone="no"?>
<svg width="21px" height="31px" viewBox="0 0 21 31" version="1.1" xmlns="http://www.w3.org/2000/svg" xmlns:xlink="http://www.w3.org/1999/xlink" xmlns:sketch="http://www.bohemiancoding.com/sketch/ns">
    <!-- Generator: Sketch 3.4.2 (15857) - http://www.bohemiancoding.com/sketch -->
    <title>journey-icon-profile</title>
    <desc>Created with Sketch.</desc>
    <defs></defs>
    <g id="Profile" stroke="none" stroke-width="1" fill="none" fill-rule="evenodd" sketch:type="MSPage">
        <g id="profile-journey-list" sketch:type="MSArtboardGroup" transform="translate(-64.000000, -359.000000)">
            <g id="profile-top" sketch:type="MSLayerGroup" transform="translate(-7.000000, 0.000000)">
                <g id="4-headers" transform="translate(7.000000, 349.000000)" sketch:type="MSShapeGroup">
                    <g id="journey-icon-profile" transform="translate(74.500000, 25.500000) scale(-1, 1) translate(-74.500000, -25.500000) translate(64.000000, 10.000000)">
                        <path d="M7.93515141,11.4851916 C8.1044894,10.9012841 8.34325251,10.2418282 8.67007754,9.54700356 C9.34586217,8.11029643 10.9168548,7.71250502 11.7021583,6.99557643 C11.8065934,6.90023434 12.001718,6.96517487 12.0701423,6.8485813 C12.353858,6.36513635 12.5815948,7.31175213 12.5815948,7.31175213 C12.5815948,7.31175213 12.4654996,6.42504118 12.6400109,6.55439058 C12.7428876,6.63064365 13.1149167,6.64681273 13.173076,6.72310335 C13.6121006,7.29899565 14.5079406,8.3687564 14.5079406,8.3687564 L13.2169491,10.251358 C13.2169491,10.251358 11.865626,12.281414 10.9726816,12.9672538 C10.5645805,13.2807021 10.0010231,13.7191395 9.38316934,14.0211861 C8.34053216,14.5308941 7.24778277,14.8360683 7.24778277,14.8360683 C7.24778277,14.8360683 7.62742944,12.5462717 7.93515141,11.4851916 Z" id="Rectangle-72" stroke="#FFFFFF" fill="#FFFFFF"></path>
                        <path d="M7.25270528,14.8400612 C7.25270528,14.8400612 12.8309505,9.23496227 13.33014,10.2157231 C13.5213457,10.5913861 11.1923977,15.757683 11.1923977,15.757683 L11.8467934,16.9924412 L7.04222926,18.0131303 L7.25270528,14.8400612 Z" id="Rectangle-71" stroke="#FFFFFF" fill="#FFFFFF"></path>
                        <path d="M1.60289793,29.034109 C1.66550412,28.9446981 1.75957995,28.825735 1.75957995,28.825735 C2.10786922,28.3713026 2.76486,28.2652426 3.23571923,28.5949418 L3.16002584,28.5419407 C3.62698578,28.8689096 3.76205931,29.5223703 3.46069251,30.001858 C3.46069251,30.001858 3.47051912,29.9878241 3.46069251,30.001858 C3.34962937,30.1604726 3.1439615,30.4287104 3.1439615,30.4287104 C2.79852087,30.8865441 2.14383937,30.9953613 1.67298015,30.6656621 L1.74867354,30.7186632 C1.28171359,30.3916943 1.15066331,29.7374039 1.46481352,29.2458775 C1.46481352,29.2458775 1.53474607,29.1314399 1.60289793,29.034109 Z" id="Rectangle-68" fill="#FFFFFF"></path>
                        <path d="M2.58636397,27.8938673 C3.24331314,27.2266306 4.1501584,26.4538709 4.61067949,25.8617283 C5.09804447,25.2350696 5.72727273,23.7375109 5.72727273,23.7375109 L7.24778277,26.3638171 C7.24778277,26.3638171 6.58859781,27.0533226 6.25466905,27.3741097 C5.32330158,28.2688234 3.45189409,30.0103195 3.45189409,30.0103195 L1.58815721,29.059627 C1.58815721,29.059627 1.97035916,28.5195184 2.58636397,27.8938673 Z" id="Rectangle-67" fill="#FFFFFF"></path>
                        <ellipse id="Oval-48" fill="#FFFFFF" cx="16.6161616" cy="4.43511476" rx="2.4040404" ry="2.32652909"></ellipse>
                        <path d="M5.59179777,15.7517769 C5.9780128,15.8813592 6.28455491,15.8298391 6.51143329,15.5972152 C6.73831167,15.3645914 6.91905843,14.9337335 7.05367901,14.3046289 L9.39606532,3.35826259 C9.53352002,2.71591362 9.54775068,2.22563785 9.43875775,1.88742056 C9.32976482,1.54920327 9.0861461,1.31664289 8.70789427,1.18973244 L5.87101971,0.237908785 C5.4529519,0.0976393355 5.08142115,0.0191176596 4.75641632,0.00234140205 C4.4314115,-0.0144348555 4.1212594,0.0589408339 3.82595074,0.222470672 C3.57497881,0.358290679 3.33620932,0.55675588 3.1096351,0.817872228 C2.88306089,1.07898858 2.6872295,1.38590214 2.52213506,1.73862212 C2.35704062,2.0913421 2.22914944,2.4796052 2.13845769,2.90342308 C1.82670477,4.36029702 2.03653098,5.57339461 2.7679426,6.54275224 C1.48689132,6.76591548 0.657909299,7.75822873 0.280971686,9.51972177 C0.106673466,10.3342467 0.0751550325,11.1097195 0.186415439,11.8461634 C0.297675846,12.5826073 0.533017145,13.1779115 0.892446397,13.632094 C1.11953584,13.9070196 1.39812781,14.1406679 1.72823068,14.3330459 C2.05833355,14.525424 2.45431175,14.6990926 2.91617714,14.8540569 L5.59179777,15.7517769 Z M5.9537934,9.34614213 L5.11722025,13.6000486 L3.5836412,13.0401685 C2.61893984,12.6879746 2.27797845,11.792964 2.56074681,10.3551099 C2.70538868,9.61961774 2.9352777,9.13186066 3.25042075,8.89182406 C3.56556381,8.65178747 3.97151581,8.62245076 4.46828894,8.80381306 L5.9537934,9.34614213 Z M6.72249027,6.70209144 L5.26505346,6.22408005 C4.86854293,6.09403218 4.57748315,5.92390881 4.3918654,5.71370483 C4.20624764,5.50350084 4.0991286,5.18394372 4.07050507,4.75502387 C4.04219758,4.44708974 4.06580333,4.12063362 4.14132303,3.77564573 C4.30252854,3.03922926 4.55073267,2.59622848 4.88594288,2.44663011 C5.22115308,2.29703173 5.67809685,2.31713204 6.25678789,2.50693163 L7.54811977,2.93046378 L6.72249027,6.70209144 Z" id="B" fill="#FFFFFF"></path>
                        <path d="M8.13303152,5.10041472 C8.54774869,5.43800611 10.5989182,4.61229058 11.7249712,4.96149997 C13.2377127,5.43062848 15.3233157,8.15500808 13.5737469,10.2582969 C11.9631944,12.1944636 8.88932564,13.0663054 6.51321076,13.7561566" id="Path-93" stroke="#FFFFFF" stroke-width="1.5"></path>
                        <path id="Path-94" stroke="#F06E40" d="M12.0312593,4.27268323 C11.2976607,3.79708867 9.71363181,4.46194118 8.98003318,3.98634663"></path>
                        <path d="M10.0642996,21.3308774 C10.0642996,21.3308774 8.79367799,23.8827592 8.14814622,25.0639015 C7.89201782,25.5325446 7.23070992,26.3967365 7.23070992,26.3967365 L5.63636428,23.8723565 L6.76107901,18.5222429 L10.0642996,21.3308774 Z" id="Rectangle-67" fill="#FFFFFF"></path>
                        <path d="M12.7634011,24.6027664 C13.0459592,25.395422 13.2211999,26.7074877 13.4522669,27.7259555 C13.6689327,28.6809473 13.9506085,29.3695904 13.9506085,29.3695904 C14.0091694,29.489736 14.0867783,29.6570884 14.0867783,29.6570884 C14.3435136,30.23263 15.0442225,30.5181013 15.6497051,30.2931721 L15.5399124,30.3339587 C16.1426283,30.1100573 16.4647451,29.4454232 16.253201,28.8517524 C16.253201,28.8517524 16.128189,28.4933209 16.0460969,28.2819293 C16.0511602,28.2793012 15.5472504,25.4787907 15.2693242,24.0673093 C15.180688,23.6171596 14.972111,22.7488341 14.9271003,22.562441 C14.9395464,22.5629808 14.5203448,21.4159495 14.2281719,20.8869603 C13.4917956,19.5537254 11.8000192,16.9135775 11.8000192,16.9135775 C11.8000192,16.9135775 11.5647208,16.6869393 11.2778223,16.7156097 C10.3707825,16.8062524 8.413903,17.2670898 7.34094989,17.5142367 C7.17017934,17.5535724 7.05071692,18.0075442 7.05071692,18.0075442 C7.05071692,18.0075442 9.53824331,20.0530558 10.6045342,21.1031209 C11.0295267,21.5216463 11.4841853,22.4131169 11.4841853,22.4131169 L11.5263141,22.4149441 C11.8079373,22.8343701 12.5251336,23.9343585 12.7634011,24.6027664 Z" id="Rectangle-68-Copy" fill="#FFFFFF"></path>
                        <path d="M17.0384042,12.0535002 C17.383322,12.2875161 18.4381134,12.7832538 18.4381134,12.7832538 C18.4381134,12.7832538 18.7591435,12.9396977 18.9062405,13.0166154 C19.4763117,13.314708 19.8652141,13.6045024 19.8652141,13.6045024 C19.9312842,13.6605895 20.0224811,13.7351393 20.0224811,13.7351393 C20.3475634,13.9930897 20.4035387,14.4600178 20.1532112,14.7815029 L20.1986033,14.7232077 C19.9494196,15.0432239 19.4690734,15.1179138 19.1282748,14.8867513 C19.1282748,14.8867513 18.9220371,14.748802 18.8018834,14.6624536 C18.799314,14.6650099 17.1043421,13.869288 16.2542958,13.4539472 C15.983199,13.3214867 15.4669083,13.0435409 15.3561244,12.9837357 C15.354268,12.9912568 14.2346143,12.4136304 13.9492744,12.1457968 C13.2301196,11.4707641 12.8605796,10.3031219 12.8605796,10.3031219 L14.0737973,8.45454545 L15.8696375,10.9031967 L15.8633539,10.928655 C16.0807621,11.1708256 16.6547188,11.7931816 17.0384042,12.0535002 Z" id="Rectangle-68-Copy-2" fill="#FFFFFF"></path>
                        <path d="M12.1194564,5.72245848 C12.1194564,5.72245848 13.2363853,5.88588426 13.9893879,7.05254535 C14.7423906,8.21920643 15.5702426,11.1620311 15.5702426,11.1620311 C15.6544965,11.4336236 15.6336169,11.7029869 15.5302826,11.9330573 C15.3910531,12.2430475 15.102135,12.481705 14.7190016,12.5583709 L15.2108688,12.4599471 C14.5429663,12.5935959 13.7910632,12.2041599 13.5303598,11.5875475 L12.0290172,8.03659055 C11.7688002,7.42112868 11.3958673,6.36203123 12.0071529,6.06260694 C12.6158282,5.76446124 11.9222744,5.08684207 12.1194564,5.72245848 L12.1194564,5.72245848 Z" id="Rectangle-73" stroke="#FFFFFF" fill="#FFFFFF"></path>
                        <path d="M9.34788971,7.11724324 C9.88179033,5.40913503 11.6352647,4.61267155 13.2652529,5.3386791 L12.1970393,4.86288969 C13.8266387,5.58872405 14.9286467,7.60551243 14.658059,9.37001743 L14.8199393,8.31439436 C14.5495236,10.0777779 12.9421634,11.0689434 11.4175263,10.5875034 L11.4175263,10.5875034 C11.4205405,10.5875034 11.2125394,10.9202957 11.2095825,10.9208889 C11.4118373,10.9208889 10.3949558,11.4020244 10.3949558,11.4020244 C8.8240635,12.2112739 7.98247848,11.4856034 8.51731628,9.77449681 L9.34788971,7.11724324 Z" id="Rectangle-157" fill="#FFFFFF"></path>
                    </g>
                </g>
            </g>
        </g>
    </g>
</svg>