<?xml version="1.0" encoding="UTF-8" standalone="no"?>
<svg width="33px" height="26px" viewBox="0 0 33 26" version="1.1" xmlns="http://www.w3.org/2000/svg" xmlns:xlink="http://www.w3.org/1999/xlink" xmlns:sketch="http://www.bohemiancoding.com/sketch/ns">
    <!-- Generator: sketchtool 3.4 (356) - http://www.bohemiancoding.com/sketch -->
    <title>pictures</title>
    <desc>Created with sketchtool.</desc>
    <defs></defs>
    <g id="Profile" stroke="none" stroke-width="1" fill="none" fill-rule="evenodd" sketch:type="MSPage">
        <g id="profile-following-hd" sketch:type="MSArtboardGroup" transform="translate(-209.000000, -360.000000)">
            <g id="profile-top" sketch:type="MSLayerGroup" transform="translate(-1.000000, 0.000000)">
                <g id="4-headers" transform="translate(0.000000, 349.000000)" sketch:type="MSShapeGroup">
                    <g id="pictures" transform="translate(210.000000, 13.000000)">
                        <rect id="Rectangle-128" stroke="#FFFFFF" stroke-width="3" x="0" y="4.8" width="26.2307692" height="19.2"></rect>
                        <path d="M13.5128205,19.5548219 L5.18750969,19.5548219 L9.3501651,16.0936298 L13.5128205,19.5548219 Z" id="Triangle-15" stroke="#FFFFFF" fill="#FFFFFF"></path>
                        <path d="M10.5816427,17.527251 L16.8040231,12.569004 L20.7159217,19.4971553 L10.5816427,17.527251 Z" id="Triangle-15" stroke="#FFFFFF" fill="#FFFFFF"></path>
                        <path d="M13.2611721,18.2335377 L21.5610078,11.5852749 L21.4691414,19.5199844 L13.2611721,18.2335377 Z" id="Triangle-15" stroke="#FFFFFF" fill="#FFFFFF"></path>
                        <ellipse id="Oval-90" stroke="#FFFFFF" fill="#FFFFFF" cx="7.55128205" cy="11.6" rx="1.98717949" ry="2"></ellipse>
                        <path d="M7.94871795,17.6 L21.4615385,17.6 L21.4615385,20 L4.57815774,20 L7.94871795,17.6 Z" id="Rectangle-129" fill="#FFFFFF"></path>
                        <path d="M5.16666667,2 L29.0128205,0.4" id="Line" stroke="#FFFFFF" stroke-width="3" stroke-linecap="square" fill="#858585"></path>
                        <path d="M29.0128205,0.4 L30.6025641,17.2" id="Line" stroke="#FFFFFF" stroke-width="3" stroke-linecap="square" fill="#858585"></path>
                        <path d="M29.0171749,17.2836228 L30.5982097,17.1163772" id="Line" stroke="#FFFFFF" stroke-width="3" stroke-linecap="square" fill="#858585"></path>
                    </g>
                </g>
            </g>
        </g>
    </g>
</svg>