<?xml version="1.0" encoding="UTF-8" standalone="no"?>
<svg width="21px" height="20px" viewBox="0 0 21 20" version="1.1" xmlns="http://www.w3.org/2000/svg" xmlns:xlink="http://www.w3.org/1999/xlink" xmlns:sketch="http://www.bohemiancoding.com/sketch/ns">
    <g id="Profile" stroke="none" stroke-width="1" fill="none" fill-rule="evenodd" sketch:type="MSPage">
        <g id="settings-info" sketch:type="MSArtboardGroup" transform="translate(-562.000000, -96.000000)" stroke="#FFFFFF">
            <g id="SAVE" sketch:type="MSLayerGroup" transform="translate(562.000000, 96.000000)">
                <path d="M4.41304348,11.8181818 L16.2826087,11.8181818" id="Line" stroke-width="0.5" stroke-linecap="square" sketch:type="MSShapeGroup"></path>
                <path d="M4.41304348,13.6363636 L16.2826087,13.6363636" id="Line-Copy" stroke-width="0.5" stroke-linecap="square" sketch:type="MSShapeGroup"></path>
                <path d="M4.41304348,15.4545455 L16.2826087,15.4545455" id="Line-Copy-2" stroke-width="0.5" stroke-linecap="square" sketch:type="MSShapeGroup"></path>
                <path d="M4.41304348,17.2727273 L16.2826087,17.2727273" id="Line-Copy-3" stroke-width="0.5" stroke-linecap="square" sketch:type="MSShapeGroup"></path>
                <rect id="Rectangle-61" fill="#FFFFFF" sketch:type="MSShapeGroup" x="14" y="3.28358209" width="1.2173913" height="4.17910448"></rect>
                <path d="M18.1960272,0 L0.998746091,0 C0.438614845,0 0,0.444045377 0,0.99180311 L0,19.0081969 C0,19.5446944 0.447153856,20 0.998746091,20 L20.0012539,20 C20.5613852,20 21,19.5559546 21,19.0081969 L21,2.74688901 L20.992475,2.7964478 L18.1960272,1.01448797e-15 Z M3.04347826,3.6846201 C3.04347826,3.13341068 3.49670684,2.68656716 4.04759308,2.68656716 L16.6480591,2.68656716 C17.2026164,2.68656716 17.6521739,3.1262733 17.6521739,3.6846201 L17.6521739,7.06164856 C17.6521739,7.61285797 17.1989453,8.05970149 16.6480591,8.05970149 L4.04759308,8.05970149 C3.49303578,8.05970149 3.04347826,7.61999536 3.04347826,7.06164856 L3.04347826,3.6846201 Z M3.04347826,10.7462687 L17.6521739,10.7462687 L17.6521739,18.5074627 L3.04347826,18.5074627 L3.04347826,10.7462687 Z" id="Rectangle-59" fill="#FFFFFF" sketch:type="MSShapeGroup"></path>
            </g>
        </g>
    </g>
</svg>
