<?xml version="1.0" encoding="UTF-8" standalone="no"?>
<svg width="29px" height="28px" viewBox="0 0 29 28" version="1.1" xmlns="http://www.w3.org/2000/svg" xmlns:xlink="http://www.w3.org/1999/xlink" xmlns:sketch="http://www.bohemiancoding.com/sketch/ns">
    <!-- Generator: Sketch 3.4.2 (15857) - http://www.bohemiancoding.com/sketch -->
    <title>settings_info_profile_icon</title>
    <desc>Created with Sketch.</desc>
    <defs></defs>
    <g id="Profile" stroke="none" stroke-width="1" fill="none" fill-rule="evenodd" sketch:type="MSPage">
        <g id="settings-info" sketch:type="MSArtboardGroup" transform="translate(-48.000000, -530.000000)" fill="#084C6D">
            <g id="info-box" sketch:type="MSLayerGroup" transform="translate(12.000000, 500.000000)">
                <path d="M63.5740581,51.7178796 L63.5761955,51.7172239 C63.5845561,51.7223516 63.5943841,51.7253067 63.6048999,51.7253067 C63.6271456,51.7253067 63.6463133,51.7120825 63.6550218,51.6930409 L63.7874549,51.6524119 L53.9917981,46.6787227 L54.1606745,44.2840744 C54.0762042,44.3930874 53.9974438,44.502531 53.9256015,44.6123526 L53.9256015,44.6123526 L53.9256015,44.4904086 L53.9256015,44.4904086 C54.0259096,44.3429972 54.3938765,44.1453655 54.4659567,44.0274253 C55.1056554,42.980727 55.7967325,41.9452031 56.2911106,40.8508846 C56.5219839,40.3398408 56.5740977,39.7771901 56.6950194,39.2445344 C57.489443,35.745128 57.0361441,32.5998585 52.9129477,30.9347502 C52.0357174,30.5804903 51.5822505,30.4980237 51.2239814,30.4390848 C50.886544,30.3835729 50.637119,30.3429376 50.0853326,30.3046475 L50.1021454,30.3818745 L50.0694496,30.3818745 L50.0853326,30.3046475 C49.5640665,30.3429376 49.3284376,30.3835729 49.0096645,30.4390848 C48.671212,30.4980237 48.2428272,30.5804903 47.4141181,30.9347502 C43.5189833,32.5998585 43.0907572,35.745128 43.8412398,39.2445344 C43.9554731,39.7771901 44.0047044,40.3398408 44.2228076,40.8508846 C44.6898407,41.9452031 45.3426931,42.980727 45.9470089,44.0274253 C46.0247964,44.1621563 46.4673592,44.400885 46.481037,44.5499396 C46.4831101,44.5725317 46.4945689,44.5912122 46.5143713,44.6062335 L46.4966161,44.6769629 C46.4185631,44.545444 46.3308419,44.4144514 46.2354054,44.2840744 L46.3968864,46.7079254 L37.3742898,51.5519813 C37.3282682,51.5538248 37.2883467,51.5781516 37.2663069,51.6137344 L37.152402,51.6734843 L37.2494997,51.6959786 C37.2547603,51.7300021 37.2743324,51.7595872 37.3022005,51.779001 C36.9556129,51.8324155 36.7207325,51.9357298 36.7207325,52.0544205 C36.7207325,52.0990913 36.7540032,52.1415841 36.8139782,52.1800584 L36.5888944,52.1800584 L36.5888944,52.5358718 L36.5888944,52.5358718 C36.5679862,52.5466072 36.5475166,52.558095 36.5275203,52.5703 L36.033348,53.2165715 L36.0320413,53.2165715 L36.0320413,57.8651755 L36.0615421,57.8651755 L36.0615421,57.889381 L36,57.889381 L36,58 L64.9668147,58 L64.9668147,57.959404 L65,57.959404 L65,53.185162 L64.9614473,53.185162 C64.9615136,53.1987927 64.9600663,53.2165715 64.9600663,53.2165715 L64.9346427,53.185162 L64.9097529,53.185162 C64.9063741,53.1701843 64.902657,53.1553427 64.8986102,53.1406456 L64.4096775,52.536594 L64.4096775,52.536594 C64.3759162,52.5192162 64.3410005,52.5038008 64.3050769,52.4904913 C64.3284833,52.4410568 64.3408096,52.3897387 64.3408096,52.3371058 C64.3408096,52.0743111 64.0335158,51.84429 63.5740581,51.7178796 L63.5740581,51.7178796 L63.5740581,51.7178796 Z M37.4868842,51.7509728 L37.5035942,51.7548439 C37.4964274,51.7554781 37.4892917,51.7561319 37.482188,51.7568052 C37.4838113,51.7549063 37.4853775,51.7529614 37.4868842,51.7509728 L37.4868842,51.7509728 L37.4868842,51.7509728 Z M36.1009813,53.1281216 C36.0954897,53.1469045 36.0905424,53.1659242 36.0861578,53.185162 L36.0861578,53.185162 L36.0615421,53.185162 L36.0615421,53.2165715 L36.033348,53.2165715 C36.033348,53.2165715 36.033348,53.2165715 36.033348,53.2165715 L36.1009813,53.1281216 L36.1009813,53.1281216 L36.1009813,53.1281216 Z" id="settings_info_profile_icon" sketch:type="MSShapeGroup"></path>
            </g>
        </g>
    </g>
</svg>