<?xml version="1.0" encoding="UTF-8" standalone="no"?>
<svg width="44px" height="44px" viewBox="0 0 44 44" version="1.1" xmlns="http://www.w3.org/2000/svg" xmlns:xlink="http://www.w3.org/1999/xlink" xmlns:sketch="http://www.bohemiancoding.com/sketch/ns">
    <!-- Generator: Sketch 3.4.2 (15857) - http://www.bohemiancoding.com/sketch -->
    <title>web-icon</title>
    <desc>Created with Sketch.</desc>
    <defs></defs>
    <g id="Profile" stroke="none" stroke-width="1" fill="none" fill-rule="evenodd" sketch:type="MSPage">
        <g id="profile-social-media-hd" sketch:type="MSArtboardGroup" transform="translate(-374.000000, -204.000000)" stroke="#FFFFFF" stroke-width="2">
            <g id="web-icon" sketch:type="MSLayerGroup" transform="translate(379.000000, 207.000000)">
                <path d="M17,1 L17,33" id="Line" stroke-linecap="square" sketch:type="MSShapeGroup"></path>
                <circle id="Oval-308" sketch:type="MSShapeGroup" cx="17" cy="17" r="17"></circle>
                <path d="M17,1 C17,1 25.5078936,6.37811097 25.5078936,16.4168682 C25.5078936,26.4556254 17,33 17,33 M17,1 L17,33" id="Line" stroke-linecap="square" sketch:type="MSShapeGroup"></path>
                <path d="M9.49210644,1 C9.49210644,1 18,6.37811097 18,16.4168682 C18,26.4556254 9.49210644,33 9.49210644,33 M9.49210644,1 L9.49210644,33" id="Line" stroke-linecap="square" sketch:type="MSShapeGroup" transform="translate(13.246053, 17.000000) scale(-1, 1) translate(-13.246053, -17.000000) "></path>
                <path d="M1,17 L33,17" id="Line" stroke-linecap="square" sketch:type="MSShapeGroup"></path>
                <path d="M3,8 L31,8" id="Line" stroke-linecap="square" sketch:type="MSShapeGroup"></path>
                <path d="M3,25 L31,25" id="Line" stroke-linecap="square" sketch:type="MSShapeGroup"></path>
            </g>
        </g>
    </g>
</svg>